<?xml version="1.0" encoding="UTF-8" standalone="no"?>
<!DOCTYPE svg PUBLIC "-//W3C//DTD SVG 1.1//EN"
 "http://www.w3.org/Graphics/SVG/1.1/DTD/svg11.dtd">
<!-- Generated by graphviz version 7.0.6 (20230106.0513)
 -->
<!-- Pages: 1 -->
<svg width="461pt" height="92pt"
 viewBox="0.00 0.00 460.50 91.70" xmlns="http://www.w3.org/2000/svg" xmlns:xlink="http://www.w3.org/1999/xlink">
<g id="graph0" class="graph" transform="scale(1 1) rotate(0) translate(4 87.7)">
<polygon fill="white" stroke="none" points="-4,4 -4,-87.7 456.5,-87.7 456.5,4 -4,4"/>
<!-- Ball X -->
<g id="node1" class="node">
<title>Ball X</title>
<polygon fill="lightgray" stroke="black" points="40,-83.7 0,-83.7 0,-65.7 40,-65.7 40,-83.7"/>
<text text-anchor="middle" x="20" y="-72.5" font-family="Times New Roman,serif" font-size="9.00">Ball X</text>
</g>
<!-- 0 -->
<g id="node7" class="node">
<title>0</title>
<ellipse fill="lightblue" stroke="black" cx="178" cy="-14.85" rx="14.7" ry="14.7"/>
<text text-anchor="middle" x="178" y="-12.65" font-family="Times New Roman,serif" font-size="9.00">0</text>
</g>
<!-- Ball X&#45;&gt;0 -->
<g id="edge1" class="edge">
<title>Ball X&#45;&gt;0</title>
<path fill="none" stroke="red" stroke-width="1.99" d="M40.33,-66.25C68.92,-55.79 120.99,-36.72 152.25,-25.28"/>
<polygon fill="red" stroke="red" stroke-width="1.99" points="153.22,-28.65 161.41,-21.92 150.82,-22.08 153.22,-28.65"/>
</g>
<!-- Ball Y -->
<g id="node2" class="node">
<title>Ball Y</title>
<polygon fill="lightgray" stroke="black" points="452.5,-83.7 413.5,-83.7 413.5,-65.7 452.5,-65.7 452.5,-83.7"/>
<text text-anchor="middle" x="433" y="-72.5" font-family="Times New Roman,serif" font-size="9.00">Ball Y</text>
</g>
<!-- Left Paddle Y -->
<g id="node3" class="node">
<title>Left Paddle Y</title>
<polygon fill="lightgray" stroke="black" points="124,-83.7 58,-83.7 58,-65.7 124,-65.7 124,-83.7"/>
<text text-anchor="middle" x="91" y="-72.5" font-family="Times New Roman,serif" font-size="9.00">Left Paddle Y</text>
</g>
<!-- Left Paddle Y&#45;&gt;0 -->
<g id="edge2" class="edge">
<title>Left Paddle Y&#45;&gt;0</title>
<path fill="none" stroke="green" stroke-width="3.44" d="M103.46,-65.41C116.46,-56.77 137.16,-43 153.46,-32.17"/>
<polygon fill="green" stroke="green" stroke-width="3.44" points="155.11,-35.27 161.5,-26.82 151.23,-29.44 155.11,-35.27"/>
</g>
<!-- Right Paddle Y -->
<g id="node4" class="node">
<title>Right Paddle Y</title>
<polygon fill="lightgray" stroke="black" points="213.5,-83.7 142.5,-83.7 142.5,-65.7 213.5,-65.7 213.5,-83.7"/>
<text text-anchor="middle" x="178" y="-72.5" font-family="Times New Roman,serif" font-size="9.00">Right Paddle Y</text>
</g>
<!-- Right Paddle Y&#45;&gt;0 -->
<g id="edge3" class="edge">
<title>Right Paddle Y&#45;&gt;0</title>
<path fill="none" stroke="red" stroke-width="1.44" d="M178,-65.65C178,-59.4 178,-50.35 178,-41.67"/>
<polygon fill="red" stroke="red" stroke-width="1.44" points="181.5,-41.79 178,-31.79 174.5,-41.79 181.5,-41.79"/>
</g>
<!-- Ball X Velocity -->
<g id="node5" class="node">
<title>Ball X Velocity</title>
<polygon fill="lightgray" stroke="black" points="304.5,-83.7 231.5,-83.7 231.5,-65.7 304.5,-65.7 304.5,-83.7"/>
<text text-anchor="middle" x="268" y="-72.5" font-family="Times New Roman,serif" font-size="9.00">Ball X Velocity</text>
</g>
<!-- Ball X Velocity&#45;&gt;0 -->
<g id="edge4" class="edge">
<title>Ball X Velocity&#45;&gt;0</title>
<path fill="none" stroke="red" stroke-width="1.68" d="M255.11,-65.41C240.91,-56.29 217.82,-41.45 200.61,-30.38"/>
<polygon fill="red" stroke="red" stroke-width="1.68" points="202.74,-27.59 192.44,-25.13 198.96,-33.48 202.74,-27.59"/>
</g>
<!-- Ball Y Velocity -->
<g id="node6" class="node">
<title>Ball Y Velocity</title>
<polygon fill="lightgray" stroke="black" points="395,-83.7 323,-83.7 323,-65.7 395,-65.7 395,-83.7"/>
<text text-anchor="middle" x="359" y="-72.5" font-family="Times New Roman,serif" font-size="9.00">Ball Y Velocity</text>
</g>
<!-- Ball Y Velocity&#45;&gt;0 -->
<g id="edge5" class="edge">
<title>Ball Y Velocity&#45;&gt;0</title>
<path fill="none" stroke="green" stroke-width="1.89" d="M332.68,-65.29C298.23,-54.28 238.22,-35.1 203.95,-24.14"/>
<polygon fill="green" stroke="green" stroke-width="1.89" points="205.1,-20.84 194.51,-21.13 202.97,-27.51 205.1,-20.84"/>
</g>
</g>
</svg>
